<?xml version="1.0" encoding="UTF-8" standalone="no"?>
<!-- Created with Inkscape (http://www.inkscape.org/) -->

<svg
   xmlns:dc="http://purl.org/dc/elements/1.1/"
   xmlns:cc="http://creativecommons.org/ns#"
   xmlns:rdf="http://www.w3.org/1999/02/22-rdf-syntax-ns#"
   xmlns:svg="http://www.w3.org/2000/svg"
   xmlns="http://www.w3.org/2000/svg"
   xmlns:xlink="http://www.w3.org/1999/xlink"
   xmlns:sodipodi="http://sodipodi.sourceforge.net/DTD/sodipodi-0.dtd"
   xmlns:inkscape="http://www.inkscape.org/namespaces/inkscape"
   id="svg2"
   sodipodi:docname="logo.svg"
   viewBox="0 0 330.24265 330.24266"
   version="1.1"
   inkscape:version="0.92.3 (unknown)"
   width="330.24265"
   height="330.24265"
   inkscape:export-filename="/home/bebuch/media/projekte/topic/cpp/webservice/logo/logo.png"
   inkscape:export-xdpi="174.41721"
   inkscape:export-ydpi="174.41721">
  <defs
     id="defs4">
    <linearGradient
       id="linearGradient4026"
       inkscape:collect="always">
      <stop
         id="stop4028"
         style="stop-color:#00ffff"
         offset="0" />
      <stop
         id="stop4030"
         style="stop-color:#00ffff;stop-opacity:0"
         offset="1" />
    </linearGradient>
    <linearGradient
       id="linearGradient2987"
       inkscape:collect="always">
      <stop
         id="stop2989"
         style="stop-color:#0000ff"
         offset="0" />
      <stop
         id="stop2995"
         style="stop-color:#000080"
         offset=".79643" />
      <stop
         id="stop2991"
         style="stop-color:#002255"
         offset="1" />
    </linearGradient>
    <filter
       id="filter3874"
       inkscape:collect="always"
       style="color-interpolation-filters:sRGB">
      <feGaussianBlur
         id="feGaussianBlur3876"
         stdDeviation="2.6434757"
         inkscape:collect="always" />
    </filter>
    <filter
       id="filter3943"
       inkscape:collect="always"
       style="color-interpolation-filters:sRGB">
      <feGaussianBlur
         id="feGaussianBlur3945"
         stdDeviation="0.39652135"
         inkscape:collect="always" />
    </filter>
    <filter
       id="filter4002"
       inkscape:collect="always"
       style="color-interpolation-filters:sRGB">
      <feGaussianBlur
         id="feGaussianBlur4004"
         stdDeviation="4.0714284"
         inkscape:collect="always" />
    </filter>
    <linearGradient
       id="linearGradient4469"
       y2="391"
       xlink:href="#linearGradient2987"
       gradientUnits="userSpaceOnUse"
       x2="236"
       y1="133"
       x1="327"
       inkscape:collect="always" />
    <radialGradient
       id="radialGradient4471"
       xlink:href="#linearGradient4026"
       gradientUnits="userSpaceOnUse"
       cy="611.22998"
       cx="251.02"
       gradientTransform="matrix(0.022787,2.1069,-1.6322,0.017645,1243.8,58.902)"
       r="166.89999"
       inkscape:collect="always" />
    <radialGradient
       id="radialGradient4477"
       xlink:href="#linearGradient4026"
       gradientUnits="userSpaceOnUse"
       cy="251.12"
       cx="19.858"
       gradientTransform="matrix(0.099929,0.87539,-0.71027,0.11453,196.24,205.38)"
       r="13.789"
       inkscape:collect="always" />
    <radialGradient
       id="radialGradient4545"
       xlink:href="#linearGradient4026"
       gradientUnits="userSpaceOnUse"
       cy="611.22998"
       cx="251.02"
       gradientTransform="matrix(0.013562,1.2539,-0.97143,0.010501,815.3,384)"
       r="166.89999"
       inkscape:collect="always" />
    <linearGradient
       inkscape:collect="always"
       xlink:href="#linearGradient2987"
       id="linearGradient1105"
       gradientUnits="userSpaceOnUse"
       x1="327"
       y1="133"
       x2="236"
       y2="391" />
    <radialGradient
       inkscape:collect="always"
       xlink:href="#linearGradient4026"
       id="radialGradient1111"
       gradientUnits="userSpaceOnUse"
       gradientTransform="matrix(0.099929,0.87539,-0.71027,0.11453,196.24,205.38)"
       cx="19.858"
       cy="251.12"
       r="13.789" />
    <radialGradient
       inkscape:collect="always"
       xlink:href="#linearGradient4026"
       id="radialGradient1113"
       gradientUnits="userSpaceOnUse"
       gradientTransform="matrix(0.099929,0.87539,-0.71027,0.11453,196.24,205.38)"
       cx="19.858"
       cy="251.12"
       r="13.789" />
    <radialGradient
       inkscape:collect="always"
       xlink:href="#linearGradient4026"
       id="radialGradient1115"
       gradientUnits="userSpaceOnUse"
       gradientTransform="matrix(0.099929,0.87539,-0.71027,0.11453,196.24,205.38)"
       cx="19.858"
       cy="251.12"
       r="13.789" />
    <radialGradient
       inkscape:collect="always"
       xlink:href="#linearGradient4026"
       id="radialGradient980"
       gradientUnits="userSpaceOnUse"
       gradientTransform="matrix(0.099929,0.87539,-0.71027,0.11453,196.24,205.38)"
       cx="19.858"
       cy="251.12"
       r="13.789" />
    <radialGradient
       inkscape:collect="always"
       xlink:href="#linearGradient4026"
       id="radialGradient982"
       gradientUnits="userSpaceOnUse"
       gradientTransform="matrix(0.099929,0.87539,-0.71027,0.11453,196.24,205.38)"
       cx="19.858"
       cy="251.12"
       r="13.789" />
  </defs>
  <sodipodi:namedview
     id="base"
     fit-margin-left="0"
     inkscape:zoom="2"
     borderopacity="1.0"
     inkscape:current-layer="layer1"
     inkscape:cx="108.3085"
     inkscape:cy="216.99967"
     inkscape:window-maximized="1"
     showgrid="false"
     fit-margin-right="0"
     inkscape:snap-global="false"
     showguides="true"
     bordercolor="#666666"
     inkscape:window-x="66"
     inkscape:guide-bbox="true"
     inkscape:window-y="36"
     fit-margin-bottom="0"
     inkscape:window-width="1854"
     inkscape:pageopacity="0.0"
     inkscape:pageshadow="2"
     pagecolor="#ffffff"
     inkscape:document-units="px"
     inkscape:window-height="1020"
     fit-margin-top="0" />
  <g
     id="layer1"
     inkscape:label="Layer 1"
     inkscape:groupmode="layer"
     transform="translate(-48.646255,-669.56044)">
    <g
       id="g957"
       transform="translate(0.5355622,-5.0732264)">
      <g
         transform="translate(-10,12.5)"
         id="g939">
        <g
           id="g4182"
           transform="matrix(0.59516,0,0,0.59516,75.016,348.95)">
          <circle
             r="135.71428"
             cy="258.57144"
             cx="264.28571"
             id="path4176"
             style="color:#000000;fill:#0b1728;stroke:#0b1728;stroke-width:3"
             transform="matrix(1.7293,0,0,1.7293,-206.5,357.37)" />
          <circle
             r="135.71428"
             cy="258.57144"
             cx="264.28571"
             id="path3996"
             style="color:#000000;fill:#00ffff;stroke:#00ffff;stroke-width:3;filter:url(#filter4002)"
             transform="matrix(1.7014,0,0,1.7014,-199.12,364.59)" />
          <circle
             r="135.71428"
             cy="258.57144"
             cx="264.28571"
             id="path2985"
             style="color:#000000;fill:url(#linearGradient1105)"
             transform="matrix(1.7293,0,0,1.7293,-206.5,357.37)" />
          <path
             id="path3013"
             d="m 250.52,570.74 c -111.72,0 -204.68,80.35 -224.32,186.39 19.614,73.24 112.58,128.71 224.32,128.71 111.74,0 204.7,-55.469 224.32,-128.71 C 455.2,651.09 362.24,570.74 250.52,570.74 Z"
             style="color:#000000;fill:url(#radialGradient4471)"
             inkscape:connector-curvature="0" />
          <g
             id="g3856"
             style="opacity:0.8;fill:#00ffff;filter:url(#filter3874)"
             transform="matrix(1.7495,0,0,1.7495,-211.84,-616.93)">
            <path
               id="path3858"
               style="color:#000000;text-indent:0;text-transform:none;fill:#00ffff"
               inkscape:connector-curvature="0"
               d="m 262.03,675.24 c -18.364,0.94711 -34.501,16.456 -46.094,40.25 -11.967,24.562 -19.281,58.246 -19.281,95.438 0,37.192 7.3146,70.876 19.281,95.438 11.593,23.794 27.73,39.305 46.094,40.25 -17.358,-1.0452 -32.596,-16.541 -43.562,-40.25 -11.361,-24.562 -18.312,-58.246 -18.312,-95.438 0,-37.192 6.9513,-70.876 18.312,-95.438 10.967,-23.709 26.205,-39.203 43.562,-40.25 z" />
            <path
               id="path3860"
               style="color:#000000;text-indent:0;text-transform:none;fill:#00ffff"
               d="m 366.7,724.58 c -18.737,-21.224 -46.523,-30.535 -76.244,-29.172 -30.68,1.4066 -63.836,14.148 -92.525,37.815 -28.69,23.667 -47.501,53.796 -54.715,83.649 -6.9879,28.92 -3.1306,57.97 14.146,80.399 -16.213,-21.296 -19.2,-49.268 -11.664,-77.391 7.8069,-29.134 26.975,-58.831 55.665,-82.498 28.69,-23.667 61.489,-36.84 91.576,-38.966 29.042,-2.0524 55.935,6.1992 73.762,26.164 z"
               inkscape:transform-center-x="11.147695"
               inkscape:transform-center-y="-18.72846"
               inkscape:connector-curvature="0" />
            <path
               id="path3862"
               style="color:#000000;text-indent:0;text-transform:none;fill:#00ffff"
               d="m 360.28,906.13 c 19.178,-20.827 25.572,-49.425 21.15,-78.847 -4.5647,-30.371 -20.659,-62.035 -47.16,-88.13 -26.501,-26.094 -58.41,-41.697 -88.848,-45.792 -29.487,-3.9666 -57.984,2.8676 -78.51,22.366 19.51,-18.324 47.024,-24.181 75.774,-19.587 29.784,4.7593 61.3,20.761 87.801,46.855 26.501,26.094 42.988,57.36 48.207,87.066 5.038,28.675 -0.39478,56.276 -18.414,76.068 z"
               inkscape:transform-center-x="-14.373926"
               inkscape:transform-center-y="-14.986356"
               inkscape:connector-curvature="0" />
            <path
               id="path3864"
               style="color:#000000;text-indent:0;text-transform:none;fill:#00ffff"
               d="m 174.93,917.02 c 11.841,10.036 31.352,7.3792 53.218,-4.4222 22.572,-12.182 47.952,-34.227 71.026,-63.307 23.074,-29.08 39.49,-59.71 47.395,-85.936 7.6579,-25.407 7.392,-47.004 -3.2753,-58.52 9.9887,11.003 9.7128,32.061 1.7242,57.035 -8.2759,25.871 -24.914,56.288 -47.988,85.368 -23.074,29.08 -48.232,51.338 -70.433,63.875 -21.43,12.102 -40.38,15.275 -51.667,5.9076 z"
               inkscape:transform-center-x="-5.4800114"
               inkscape:transform-center-y="3.9570336"
               inkscape:connector-curvature="0" />
            <path
               id="path3866"
               style="color:#000000;text-indent:0;text-transform:none;fill:#00ffff"
               d="m 169.06,715.16 c -16.702,22.86 -19.824,51.998 -12.106,80.731 7.9668,29.661 27.535,59.304 56.815,82.237 29.28,22.933 62.747,34.831 93.453,35.461 29.746,0.60984 57.289,-9.4002 75.481,-31.093 -17.315,20.411 -43.991,29.339 -73.076,28.023 -30.131,-1.3638 -63.253,-13.702 -92.533,-36.636 -29.28,-22.933 -49.193,-52.136 -57.735,-81.062 -8.2455,-27.923 -5.9658,-55.96 9.7015,-77.661 z"
               inkscape:transform-center-x="10.297589"
               inkscape:transform-center-y="19.889725"
               inkscape:connector-curvature="0" />
            <path
               id="path3868"
               style="color:#000000;text-indent:0;text-transform:none;fill:#00ffff"
               d="m 366.17,910.45 c 7.1809,-27.241 0.4723,-55.646 -15.57,-79.904 -16.56,-25.04 -43.244,-46.029 -76.235,-57.351 -32.99,-11.322 -66.064,-10.84 -93.078,-0.75325 -26.169,9.7713 -46.976,28.734 -55.836,55.399 8.5087,-25.158 28.909,-42.805 54.73,-51.684 26.749,-9.198 59.664,-9.1464 92.655,2.1751 32.99,11.322 59.833,31.778 76.658,55.929 16.241,23.313 23.329,50.394 16.676,76.188 z"
               inkscape:transform-center-x="155.28331"
               inkscape:transform-center-y="-76.187379"
               inkscape:connector-curvature="0" />
          </g>
          <g
             id="g3917"
             style="opacity:0.5;fill:#00ffff;filter:url(#filter3943)"
             transform="matrix(1.7495,0,0,1.7495,-211.84,-616.93)">
            <path
               id="path3919"
               style="color:#000000;text-indent:0;text-transform:none;fill:#00ffff"
               inkscape:connector-curvature="0"
               d="m 262.03,675.24 c -18.364,0.94711 -34.501,16.456 -46.094,40.25 -11.967,24.562 -19.281,58.246 -19.281,95.438 0,37.192 7.3146,70.876 19.281,95.438 11.593,23.794 27.73,39.305 46.094,40.25 -17.358,-1.0452 -32.596,-16.541 -43.562,-40.25 -11.361,-24.562 -18.312,-58.246 -18.312,-95.438 0,-37.192 6.9513,-70.876 18.312,-95.438 10.967,-23.709 26.205,-39.203 43.562,-40.25 z" />
            <path
               id="path3921"
               style="color:#000000;text-indent:0;text-transform:none;fill:#00ffff"
               d="m 366.7,724.58 c -18.737,-21.224 -46.523,-30.535 -76.244,-29.172 -30.68,1.4066 -63.836,14.148 -92.525,37.815 -28.69,23.667 -47.501,53.796 -54.715,83.649 -6.9879,28.92 -3.1306,57.97 14.146,80.399 -16.213,-21.296 -19.2,-49.268 -11.664,-77.391 7.8069,-29.134 26.975,-58.831 55.665,-82.498 28.69,-23.667 61.489,-36.84 91.576,-38.966 29.042,-2.0524 55.935,6.1992 73.762,26.164 z"
               inkscape:transform-center-x="11.147695"
               inkscape:transform-center-y="-18.72846"
               inkscape:connector-curvature="0" />
            <path
               id="path3923"
               style="color:#000000;text-indent:0;text-transform:none;fill:#00ffff"
               d="m 360.28,906.13 c 19.178,-20.827 25.572,-49.425 21.15,-78.847 -4.5647,-30.371 -20.659,-62.035 -47.16,-88.13 -26.501,-26.094 -58.41,-41.697 -88.848,-45.792 -29.487,-3.9666 -57.984,2.8676 -78.51,22.366 19.51,-18.324 47.024,-24.181 75.774,-19.587 29.784,4.7593 61.3,20.761 87.801,46.855 26.501,26.094 42.988,57.36 48.207,87.066 5.038,28.675 -0.39478,56.276 -18.414,76.068 z"
               inkscape:transform-center-x="-14.373926"
               inkscape:transform-center-y="-14.986356"
               inkscape:connector-curvature="0" />
            <path
               id="path3925"
               style="color:#000000;text-indent:0;text-transform:none;fill:#00ffff"
               d="m 174.93,917.02 c 11.841,10.036 31.352,7.3792 53.218,-4.4222 22.572,-12.182 47.952,-34.227 71.026,-63.307 23.074,-29.08 39.49,-59.71 47.395,-85.936 7.6579,-25.407 7.392,-47.004 -3.2753,-58.52 9.9887,11.003 9.7128,32.061 1.7242,57.035 -8.2759,25.871 -24.914,56.288 -47.988,85.368 -23.074,29.08 -48.232,51.338 -70.433,63.875 -21.43,12.102 -40.38,15.275 -51.667,5.9076 z"
               inkscape:transform-center-x="-5.4800114"
               inkscape:transform-center-y="3.9570336"
               inkscape:connector-curvature="0" />
            <path
               id="path3927"
               style="color:#000000;text-indent:0;text-transform:none;fill:#00ffff"
               d="m 169.06,715.16 c -16.702,22.86 -19.824,51.998 -12.106,80.731 7.9668,29.661 27.535,59.304 56.815,82.237 29.28,22.933 62.747,34.831 93.453,35.461 29.746,0.60984 57.289,-9.4002 75.481,-31.093 -17.315,20.411 -43.991,29.339 -73.076,28.023 -30.131,-1.3638 -63.253,-13.702 -92.533,-36.636 -29.28,-22.933 -49.193,-52.136 -57.735,-81.062 -8.2455,-27.923 -5.9658,-55.96 9.7015,-77.661 z"
               inkscape:transform-center-x="10.297589"
               inkscape:transform-center-y="19.889725"
               inkscape:connector-curvature="0" />
            <path
               id="path3929"
               style="color:#000000;text-indent:0;text-transform:none;fill:#00ffff"
               d="m 366.17,910.45 c 7.1809,-27.241 0.4723,-55.646 -15.57,-79.904 -16.56,-25.04 -43.244,-46.029 -76.235,-57.351 -32.99,-11.322 -66.064,-10.84 -93.078,-0.75325 -26.169,9.7713 -46.976,28.734 -55.836,55.399 8.5087,-25.158 28.909,-42.805 54.73,-51.684 26.749,-9.198 59.664,-9.1464 92.655,2.1751 32.99,11.322 59.833,31.778 76.658,55.929 16.241,23.313 23.329,50.394 16.676,76.188 z"
               inkscape:transform-center-x="155.28331"
               inkscape:transform-center-y="-76.187379"
               inkscape:connector-curvature="0" />
          </g>
          <ellipse
             ry="17.67767"
             rx="13.788582"
             cy="249.6842"
             cx="19.445436"
             id="path4006"
             style="color:#000000;opacity:0.8;fill:url(#radialGradient980)"
             transform="matrix(1.1431,0,0,0.96182,39.911,519.37)" />
          <use
             id="use4034"
             xlink:href="#path4006"
             transform="translate(82.117,136.86)"
             height="500"
             width="500"
             y="0"
             x="0" />
          <use
             id="use4036"
             xlink:href="#use4034"
             transform="translate(250.86,-187.9)"
             height="500"
             width="500"
             y="0"
             x="0" />
          <use
             id="use4042"
             xlink:href="#use4040"
             transform="translate(150.55,-56.113)"
             height="500"
             width="500"
             y="0"
             x="0" />
          <path
             id="path3039"
             style="color:#000000;text-indent:0;text-transform:none;fill:#ffffff"
             inkscape:connector-curvature="0"
             d="m 217.04,598.88 c 12.44,2.1599 24.517,5.6897 36.568,9.3665 -86.286,21.399 -162.19,83.794 -198.75,164.96 -5.857,13.551 -10.729,27.457 -13.986,41.871 5.5093,-19.858 14.264,-41.058 24.336,-57.311 4.2189,-8.2313 11.459,-19.238 17.786,-27.922 21.245,-29.25 47.747,-54.368 77.205,-75.408 12.154,-7.9159 26.884,-17.278 40.93,-24.122 18.001,-8.5077 36.91,-16.784 56.285,-20.529 78.925,29.183 144.66,92.052 178.8,168.74 7.6936,17.656 13.532,36.152 16.955,55.111 -12.295,-84.421 -68.901,-157.82 -141.27,-201.1 -16.531,-9.8353 -34.196,-17.693 -52.35,-24.079 13.054,-2.6521 26.12,-5.2557 39.391,-6.1588 -14.497,0.25455 -28.813,2.9146 -42.94,5.2179 -13.097,-4.0805 -26.656,-7.2098 -40.289,-8.8533 l 1.3258,0.21386 z m -71.938,105.98 c 0.62785,-2.5046 0.44502,-2.0072 0,0 z m -0.85536,4.0631 c -1.3122,6.1551 -2.4616,12.346 -3.4643,18.562 -12.299,2.3471 -24.485,5.5915 -36.183,10.136 11.67,-3.9047 23.693,-6.5899 35.884,-8.5111 -8.4737,55.044 -7.1762,111.75 3.7637,166.37 -35.774,-34.044 -65.14,-75.772 -79.551,-123.39 19.946,75.738 76.05,137.77 144.22,174.5 36.426,19.486 77.436,31.562 118.98,32.077 -68.939,-4.0979 -133.31,-36.954 -183.44,-83.229 -10.605,-54.64 -11.616,-111.28 -3.6354,-166.33 82.477,-11.419 168.5,18.405 228.99,74.846 10.356,9.8418 19.984,20.603 28.484,32.163 -53.64,-78.46 -153.32,-122.36 -247.61,-110.19 -10.513,4.206 -10.041,-2.256 -7.4893,-10.872 0.18427,-1.462 3.0028,-14.966 1.0598,-6.1323 z m -82.673,48.8 c -0.21356,1.1145 0.97918,-0.0501 0,0 z" />
          <path
             id="path3947"
             style="color:#000000;fill:#ffffff"
             d="m 403.62,662.24 c -2.3867,15.294 -5.427,41.552 -8.1634,46.589 l -67.491,13.937 68.481,-12.456 60.652,31.641 -59.214,-32.761 c 2.2981,-9.8917 5.2129,-34.186 5.7353,-46.95 z"
             inkscape:transform-center-x="4.1508558"
             inkscape:transform-center-y="-7.4668364"
             inkscape:connector-curvature="0"
             sodipodi:nodetypes="ccccccc" />
          <ellipse
             ry="17.67767"
             rx="13.788582"
             cy="249.6842"
             cx="19.445436"
             id="use4040"
             style="color:#000000;opacity:0.8;fill:url(#radialGradient982)"
             transform="matrix(0.86709,0,0,0.72955,132.87,502.09)" />
          <use
             id="use4044"
             xlink:href="#use4040"
             transform="matrix(0.61624,0,0,0.61624,101.26,585.58)"
             height="500"
             width="500"
             y="0"
             x="0" />
          <ellipse
             ry="17.67767"
             rx="13.788582"
             cy="249.6842"
             cx="19.445436"
             id="use4046"
             style="color:#000000;opacity:0.56000001;fill:url(#radialGradient1111)"
             transform="matrix(0.95911,0,0,0.80697,413.02,566.24)" />
        </g>
        <circle
           r="135.71428"
           cy="258.57144"
           cx="264.28571"
           id="path4233"
           style="color:#000000;fill:#00ffff;stroke:#00ffff;stroke-width:3;filter:url(#filter4002)"
           transform="matrix(1.0085,0,0,1.0085,-42.424,566.98)" />
        <circle
           r="135.71428"
           cy="258.57144"
           cx="264.28571"
           id="path4235"
           style="color:#000000;fill:url(#linearGradient4469)"
           transform="matrix(1.0292,0,0,1.0292,-47.887,561.64)" />
        <path
           id="path4237"
           d="m 224.11,688.62 c -66.493,0 -121.82,47.821 -133.5,110.93 11.673,43.589 67.001,76.601 133.5,76.601 66.503,0 121.83,-33.013 133.5,-76.601 -11.686,-63.109 -67.012,-110.93 -133.5,-110.93 z"
           style="color:#000000;fill:url(#radialGradient4545)"
           inkscape:connector-curvature="0" />
        <g
           id="g4253"
           style="opacity:0.5;fill:#00ffff;filter:url(#filter3943)"
           transform="matrix(1.0412,0,0,1.0412,-51.06,-18.226)">
          <path
             id="path4255"
             style="color:#000000;text-indent:0;text-transform:none;fill:#00ffff"
             inkscape:connector-curvature="0"
             d="m 262.03,675.24 c -18.364,0.94711 -34.501,16.456 -46.094,40.25 -11.967,24.562 -19.281,58.246 -19.281,95.438 0,37.192 7.3146,70.876 19.281,95.438 11.593,23.794 27.73,39.305 46.094,40.25 -17.358,-1.0452 -32.596,-16.541 -43.562,-40.25 -11.361,-24.562 -18.312,-58.246 -18.312,-95.438 0,-37.192 6.9513,-70.876 18.312,-95.438 10.967,-23.709 26.205,-39.203 43.562,-40.25 z" />
          <path
             id="path4257"
             style="color:#000000;text-indent:0;text-transform:none;fill:#00ffff"
             d="m 366.7,724.58 c -18.737,-21.224 -46.523,-30.535 -76.244,-29.172 -30.68,1.4066 -63.836,14.148 -92.525,37.815 -28.69,23.667 -47.501,53.796 -54.715,83.649 -6.9879,28.92 -3.1306,57.97 14.146,80.399 -16.213,-21.296 -19.2,-49.268 -11.664,-77.391 7.8069,-29.134 26.975,-58.831 55.665,-82.498 28.69,-23.667 61.489,-36.84 91.576,-38.966 29.042,-2.0524 55.935,6.1992 73.762,26.164 z"
             inkscape:transform-center-x="11.147695"
             inkscape:transform-center-y="-18.72846"
             inkscape:connector-curvature="0" />
          <path
             id="path4259"
             style="color:#000000;text-indent:0;text-transform:none;fill:#00ffff"
             d="m 360.28,906.13 c 19.178,-20.827 25.572,-49.425 21.15,-78.847 -4.5647,-30.371 -20.659,-62.035 -47.16,-88.13 -26.501,-26.094 -58.41,-41.697 -88.848,-45.792 -29.487,-3.9666 -57.984,2.8676 -78.51,22.366 19.51,-18.324 47.024,-24.181 75.774,-19.587 29.784,4.7593 61.3,20.761 87.801,46.855 26.501,26.094 42.988,57.36 48.207,87.066 5.038,28.675 -0.39478,56.276 -18.414,76.068 z"
             inkscape:transform-center-x="-14.373926"
             inkscape:transform-center-y="-14.986356"
             inkscape:connector-curvature="0" />
          <path
             id="path4261"
             style="color:#000000;text-indent:0;text-transform:none;fill:#00ffff"
             d="m 174.93,917.02 c 11.841,10.036 31.352,7.3792 53.218,-4.4222 22.572,-12.182 47.952,-34.227 71.026,-63.307 23.074,-29.08 39.49,-59.71 47.395,-85.936 7.6579,-25.407 7.392,-47.004 -3.2753,-58.52 9.9887,11.003 9.7128,32.061 1.7242,57.035 -8.2759,25.871 -24.914,56.288 -47.988,85.368 -23.074,29.08 -48.232,51.338 -70.433,63.875 -21.43,12.102 -40.38,15.275 -51.667,5.9076 z"
             inkscape:transform-center-x="-5.4800114"
             inkscape:transform-center-y="3.9570336"
             inkscape:connector-curvature="0" />
          <path
             id="path4263"
             style="color:#000000;text-indent:0;text-transform:none;fill:#00ffff"
             d="m 169.06,715.16 c -16.702,22.86 -19.824,51.998 -12.106,80.731 7.9668,29.661 27.535,59.304 56.815,82.237 29.28,22.933 62.747,34.831 93.453,35.461 29.746,0.60984 57.289,-9.4002 75.481,-31.093 -17.315,20.411 -43.991,29.339 -73.076,28.023 -30.131,-1.3638 -63.253,-13.702 -92.533,-36.636 -29.28,-22.933 -49.193,-52.136 -57.735,-81.062 -8.2455,-27.923 -5.9658,-55.96 9.7015,-77.661 z"
             inkscape:transform-center-x="10.297589"
             inkscape:transform-center-y="19.889725"
             inkscape:connector-curvature="0" />
          <path
             id="path4265"
             style="color:#000000;text-indent:0;text-transform:none;fill:#00ffff"
             d="m 366.17,910.45 c 7.1809,-27.241 0.4723,-55.646 -15.57,-79.904 -16.56,-25.04 -43.244,-46.029 -76.235,-57.351 -32.99,-11.322 -66.064,-10.84 -93.078,-0.75325 -26.169,9.7713 -46.976,28.734 -55.836,55.399 8.5087,-25.158 28.909,-42.805 54.73,-51.684 26.749,-9.198 59.664,-9.1464 92.655,2.1751 32.99,11.322 59.833,31.778 76.658,55.929 16.241,23.313 23.329,50.394 16.676,76.188 z"
             inkscape:transform-center-x="155.28331"
             inkscape:transform-center-y="-76.187379"
             inkscape:connector-curvature="0" />
        </g>
        <ellipse
           ry="17.67767"
           rx="13.788582"
           cy="249.6842"
           cx="19.445436"
           id="path4267"
           style="color:#000000;opacity:0.8;fill:url(#radialGradient1113)"
           transform="matrix(0.68035,0,0,0.57243,98.769,658.05)" />
        <use
           id="use4269"
           xlink:href="#path4006"
           transform="matrix(0.59516,0,0,0.59516,123.89,430.4)"
           height="500"
           width="500"
           y="0"
           x="0" />
        <use
           id="use4271"
           xlink:href="#use4034"
           transform="matrix(0.59516,0,0,0.59516,224.32,237.11)"
           height="500"
           width="500"
           y="0"
           x="0" />
        <use
           id="use4273"
           xlink:href="#use4040"
           transform="matrix(0.59516,0,0,0.59516,164.62,315.55)"
           height="500"
           width="500"
           y="0"
           x="0" />
        <path
           id="path4277"
           style="color:#000000;fill:#ffffff"
           d="m 315.23,743.08 c -1.4205,9.1021 -3.2299,24.73 -4.8585,27.728 l -40.168,8.295 40.757,-7.4135 36.098,18.831 -35.242,-19.498 c 1.3677,-5.8871 3.1025,-20.346 3.4134,-27.942 z"
           inkscape:transform-center-x="4.1508558"
           inkscape:transform-center-y="-7.4668364"
           inkscape:connector-curvature="0"
           sodipodi:nodetypes="ccccccc" />
        <ellipse
           ry="17.67767"
           rx="13.788582"
           cy="249.6842"
           cx="19.445436"
           id="path4279"
           style="color:#000000;opacity:0.8;fill:url(#radialGradient1115)"
           transform="matrix(0.51606,0,0,0.4342,154.09,647.77)" />
        <use
           id="use4281"
           xlink:href="#use4040"
           transform="matrix(0.36676,0,0,0.36676,135.28,697.46)"
           height="500"
           width="500"
           y="0"
           x="0" />
        <ellipse
           ry="17.67767"
           rx="13.788582"
           cy="249.6842"
           cx="19.445436"
           id="path4283"
           style="color:#000000;opacity:0.56000001;fill:url(#radialGradient4477)"
           transform="matrix(0.57082,0,0,0.48028,320.83,685.95)" />
        <g
           id="g4239"
           style="opacity:0.8;fill:#00ffff;filter:url(#filter3874)"
           transform="matrix(1.0412,0,0,1.0412,-51.06,-18.226)">
          <path
             id="path4241"
             style="color:#000000;text-indent:0;text-transform:none;fill:#00ffff"
             inkscape:connector-curvature="0"
             d="m 262.03,675.24 c -18.364,0.94711 -34.501,16.456 -46.094,40.25 -11.967,24.562 -19.281,58.246 -19.281,95.438 0,37.192 7.3146,70.876 19.281,95.438 11.593,23.794 27.73,39.305 46.094,40.25 -17.358,-1.0452 -32.596,-16.541 -43.562,-40.25 -11.361,-24.562 -18.312,-58.246 -18.312,-95.438 0,-37.192 6.9513,-70.876 18.312,-95.438 10.967,-23.709 26.205,-39.203 43.562,-40.25 z" />
          <path
             id="path4243"
             style="color:#000000;text-indent:0;text-transform:none;fill:#00ffff"
             d="m 366.7,724.58 c -18.737,-21.224 -46.523,-30.535 -76.244,-29.172 -30.68,1.4066 -63.836,14.148 -92.525,37.815 -28.69,23.667 -47.501,53.796 -54.715,83.649 -6.9879,28.92 -3.1306,57.97 14.146,80.399 -16.213,-21.296 -19.2,-49.268 -11.664,-77.391 7.8069,-29.134 26.975,-58.831 55.665,-82.498 28.69,-23.667 61.489,-36.84 91.576,-38.966 29.042,-2.0524 55.935,6.1992 73.762,26.164 z"
             inkscape:transform-center-x="11.147695"
             inkscape:transform-center-y="-18.72846"
             inkscape:connector-curvature="0" />
          <path
             id="path4245"
             style="color:#000000;text-indent:0;text-transform:none;fill:#00ffff"
             d="m 360.28,906.13 c 19.178,-20.827 25.572,-49.425 21.15,-78.847 -4.5647,-30.371 -20.659,-62.035 -47.16,-88.13 -26.501,-26.094 -58.41,-41.697 -88.848,-45.792 -29.487,-3.9666 -57.984,2.8676 -78.51,22.366 19.51,-18.324 47.024,-24.181 75.774,-19.587 29.784,4.7593 61.3,20.761 87.801,46.855 26.501,26.094 42.988,57.36 48.207,87.066 5.038,28.675 -0.39478,56.276 -18.414,76.068 z"
             inkscape:transform-center-x="-14.373926"
             inkscape:transform-center-y="-14.986356"
             inkscape:connector-curvature="0" />
          <path
             id="path4247"
             style="color:#000000;text-indent:0;text-transform:none;fill:#00ffff"
             d="m 174.93,917.02 c 11.841,10.036 31.352,7.3792 53.218,-4.4222 22.572,-12.182 47.952,-34.227 71.026,-63.307 23.074,-29.08 39.49,-59.71 47.395,-85.936 7.6579,-25.407 7.392,-47.004 -3.2753,-58.52 9.9887,11.003 9.7128,32.061 1.7242,57.035 -8.2759,25.871 -24.914,56.288 -47.988,85.368 -23.074,29.08 -48.232,51.338 -70.433,63.875 -21.43,12.102 -40.38,15.275 -51.667,5.9076 z"
             inkscape:transform-center-x="-5.4800114"
             inkscape:transform-center-y="3.9570336"
             inkscape:connector-curvature="0" />
          <path
             id="path4249"
             style="color:#000000;text-indent:0;text-transform:none;fill:#00ffff"
             d="m 169.06,715.16 c -16.702,22.86 -19.824,51.998 -12.106,80.731 7.9668,29.661 27.535,59.304 56.815,82.237 29.28,22.933 62.747,34.831 93.453,35.461 29.746,0.60984 57.289,-9.4002 75.481,-31.093 -17.315,20.411 -43.991,29.339 -73.076,28.023 -30.131,-1.3638 -63.253,-13.702 -92.533,-36.636 -29.28,-22.933 -49.193,-52.136 -57.735,-81.062 -8.2455,-27.923 -5.9658,-55.96 9.7015,-77.661 z"
             inkscape:transform-center-x="10.297589"
             inkscape:transform-center-y="19.889725"
             inkscape:connector-curvature="0" />
          <path
             id="path4251"
             style="color:#000000;text-indent:0;text-transform:none;fill:#00ffff"
             d="m 366.17,910.45 c 7.1809,-27.241 0.4723,-55.646 -15.57,-79.904 -16.56,-25.04 -43.244,-46.029 -76.235,-57.351 -32.99,-11.322 -66.064,-10.84 -93.078,-0.75325 -26.169,9.7713 -46.976,28.734 -55.836,55.399 8.5087,-25.158 28.909,-42.805 54.73,-51.684 26.749,-9.198 59.664,-9.1464 92.655,2.1751 32.99,11.322 59.833,31.778 76.658,55.929 16.241,23.313 23.329,50.394 16.676,76.188 z"
             inkscape:transform-center-x="155.28331"
             inkscape:transform-center-y="-76.187379"
             inkscape:connector-curvature="0" />
        </g>
        <path
           id="path4275"
           style="color:#000000;text-indent:0;text-transform:none;fill:#ffffff"
           inkscape:connector-curvature="0"
           d="m 204.19,705.37 c 7.4039,1.2855 14.592,3.3862 21.764,5.5745 -51.354,12.736 -96.529,49.871 -118.29,98.178 -3.4858,8.0652 -6.3853,16.341 -8.3236,24.92 3.2789,-11.819 8.4893,-24.436 14.484,-34.109 2.5109,-4.8989 6.82,-11.45 10.585,-16.618 12.644,-17.408 28.417,-32.357 45.949,-44.88 7.2333,-4.7112 16,-10.283 24.36,-14.356 10.714,-5.0634 21.967,-9.9891 33.498,-12.218 46.973,17.369 86.095,54.785 106.41,100.43 4.5789,10.508 8.0536,21.516 10.091,32.8 -7.3173,-50.244 -41.007,-93.93 -84.076,-119.69 -9.8383,-5.8536 -20.352,-10.53 -31.156,-14.331 7.769,-1.5784 15.545,-3.128 23.444,-3.6654 -8.6283,0.1515 -17.148,1.7347 -25.556,3.1054 -7.795,-2.4285 -15.865,-4.291 -23.978,-5.2691 l 0.78909,0.12728 z m -42.815,63.076 c 0.37367,-1.4906 0.26485,-1.1946 0,0 z m -0.50908,2.4182 c -0.78095,3.6633 -1.465,7.348 -2.0618,11.047 -7.3201,1.3969 -14.573,3.3278 -21.535,6.0327 6.9457,-2.3239 14.101,-3.922 21.356,-5.0655 -5.0432,32.76 -4.271,66.51 2.24,99.018 -21.291,-20.261 -38.769,-45.096 -47.345,-73.436 11.871,45.076 45.262,81.998 85.833,103.85 21.679,11.597 46.086,18.784 70.815,19.091 -41.03,-2.4389 -79.339,-21.993 -109.17,-49.535 -6.3119,-32.519 -6.9132,-66.229 -2.1636,-98.993 49.087,-6.7962 100.28,10.954 136.28,44.545 6.1635,5.8574 11.894,12.262 16.953,19.142 -31.932,-46.698 -91.258,-72.824 -147.37,-65.582 -6.2567,2.5032 -5.9762,-1.3427 -4.4573,-6.4705 0.10967,-0.87009 1.7871,-8.9073 0.63076,-3.6497 z m -49.204,29.044 c -0.1271,0.66333 0.58276,-0.0298 0,0 z" />
      </g>
      <g
         id="layer1-6"
         inkscape:label="Layer 1"
         transform="matrix(0.45001991,0,0,0.45001991,46.126614,613.44501)">
        <g
           id="g22249">
          <path
             inkscape:connector-curvature="0"
             id="path18706"
             sodipodi:nodetypes="cssscccccccccc"
             style="fill:#00c800;stroke:#000000;stroke-width:2.74799991;stroke-linecap:round;stroke-linejoin:round"
             d="M 209.27,228.49 C 126.44,284.24 71.5,381.44 71.5,492.04 71.502,664.96 205.67,805.29 371,805.29 c 165.33,0 299.52,-140.33 299.52,-313.25 0,-114.14 -58.51,-214.06 -145.81,-268.82 -19.98,-9.63 -109.8,-64.75 0,9.94 27.87,18.1 52.91,40.94 73.37,67.66 50.72,64.73 73.04,152.25 61.48,235.08 C 648.35,621.56 599.5,700.16 530.6,747.21 462.89,794.51 375.73,808.67 297.09,787.02 213.17,764.93 141.19,700.42 105.48,618.1 67.175,532.08 71.758,426.95 115.87,344.3 c 22.16,-42.64 54.82,-78.76 93.4,-105.64 109.05,-81.63 27.97,-29.22 0,-10.17 z" />
          <path
             inkscape:connector-curvature="0"
             id="path17799"
             style="fill:#00c800;stroke:#000000;stroke-width:1.01499999"
             d="m 242.67,842.78 c 0,-1.15 58.14,-30.15 68.56,-34.19 14.37,-5.58 38.06,-9.6 46.46,-7.88 l 6.1,1.26 -6.81,8.15 c -3.75,4.49 -9.98,10.36 -13.84,13.05 -9.33,6.49 -32.14,14.25 -49.6,16.88 -12.3,1.84 -50.88,3.92 -50.87,2.73 z m 231.51,-0.63 c -26.11,-1.58 -28.09,-1.94 -52.43,-9.61 -14.56,-4.59 -18.29,-6.81 -29.53,-17.58 l -12.86,-12.33 5.68,-1.59 c 14.61,-4.09 61.51,9.41 82.05,23.62 3.9,2.7 9.33,5.58 12.06,6.4 6.23,1.86 23.85,10.87 23.85,12.19 0,0.54 -1.12,0.84 -2.49,0.66 -1.36,-0.18 -13.21,-0.97 -26.33,-1.76 z M 190.01,807.22 c -10.93,-3.4 -23.77,-7.29 -28.52,-8.65 l -8.64,-2.48 14.6,-2.53 c 8.04,-1.39 23.27,-4.3 33.87,-6.47 29.54,-6.04 59.13,-4.29 78.27,4.65 l 5.11,2.39 -6.38,5.71 c -16.74,14.97 -53.89,18.08 -88.31,7.38 z m 295.24,2.35 c -14.22,-5.24 -27.2,-14.35 -23.48,-16.48 7.76,-4.46 33.68,-9.94 46.97,-9.94 12.25,0 44.52,5.06 75.31,11.81 5.8,1.27 3.35,2.39 -22.05,10.08 -24.93,7.55 -30.97,8.64 -47.27,8.58 -13.38,-0.05 -21.75,-1.2 -29.48,-4.05 z M 320.88,793.15 c -12.55,-3.73 -38.65,-34 -43.41,-50.34 l -1.37,-4.71 8.58,4.48 c 4.72,2.47 14.77,6.64 22.32,9.27 25.14,8.76 36.69,18.23 43.94,35.99 l 3.07,7.53 -13.44,-0.19 c -7.4,-0.1 -16.26,-1.01 -19.69,-2.03 z m 70.83,-1.41 c 0,-5.55 14.17,-23.64 23.43,-29.92 4.09,-2.77 13.16,-6.97 20.16,-9.32 7,-2.36 17.14,-6.46 22.52,-9.12 l 9.79,-4.84 -1.26,5.16 c -3.06,12.49 -22.43,37.77 -34.49,45.01 -6.93,4.15 -12.32,5.53 -24.52,6.25 -14.7,0.88 -15.63,0.68 -15.63,-3.22 z m -125.2,-10 c -21.47,-7.85 -36.67,-25.62 -44.79,-52.37 -2.74,-9.05 -5.54,-20.41 -6.22,-25.24 l -1.23,-8.78 26.77,27.1 c 27.62,27.97 33.25,36.34 34.97,51.97 1,9.08 -0.83,10.49 -9.5,7.32 z m 201.25,-6.7 c 2.35,-17.94 12.55,-31.68 50.34,-67.87 l 12.13,-11.61 -1.61,10.46 c -5.17,33.5 -22.25,62.69 -42.28,72.24 -5.59,2.67 -12.3,4.86 -14.9,4.87 -4.38,0.02 -4.66,-0.59 -3.68,-8.09 z m -311.54,-12 c -22.87,-7.28 -28.8,-10.29 -50.7,-25.81 -12.125,-8.59 -21.775,-15.81 -21.443,-16.06 3.003,-2.21 74.663,5.8 80.943,9.04 1.72,0.89 8.94,4.52 16.04,8.06 7.11,3.55 16.41,9.59 20.67,13.42 l 7.76,6.98 -7.13,3.05 c -11.86,5.08 -32.46,5.66 -46.14,1.32 z m 394.76,1.63 c -4.77,-0.95 -9.93,-2.82 -11.48,-4.14 -3.66,-3.11 -0.18,-7.23 14.55,-17.25 16.3,-11.08 34.71,-16.79 61.62,-19.1 34.64,-2.97 44.05,-3.3 42.98,-1.54 -2.28,3.77 -43.21,30.37 -52.76,34.29 -22.28,9.14 -37.39,11.27 -54.91,7.74 z M 193.51,737.75 c -12.48,-9.65 -23.7,-26.09 -26.35,-38.6 -1.27,-5.98 -1.98,-22.31 -1.63,-37.14 l 0.63,-26.47 7.26,14.26 c 4,7.84 9.6,17.75 12.47,22.04 13.89,20.82 21.65,49.03 17.84,64.92 l -1.8,7.5 z m 347.71,-13.93 c 1.06,-21.96 4.44,-32.79 14.96,-47.9 2.47,-3.55 8.41,-13.98 13.21,-23.18 l 8.72,-16.72 1.39,17.12 c 1.68,20.58 -1.12,46.98 -6.13,57.91 -3.92,8.54 -20.79,27.08 -28.48,31.3 l -4.68,2.56 z M 118.2,698.72 c -6.7,-1.52 -15.19,-4.35 -18.862,-6.3 -11.991,-6.35 -32.429,-24.48 -41.41,-36.74 -4.835,-6.59 -11.477,-14.97 -14.759,-18.61 -6.731,-7.46 -6.334,-7.81 4.212,-3.68 4.121,1.61 12.518,3.94 18.66,5.17 12.829,2.59 35.049,12.99 47.549,22.27 9.51,7.05 24.3,23.97 28.86,33.01 2.71,5.37 2.66,5.84 -0.58,5.87 -1.94,0.01 -5.32,0.42 -7.51,0.9 -2.18,0.48 -9.45,-0.37 -16.16,-1.89 z m 487.64,1.55 c -3.01,-0.47 -5.47,-1.33 -5.47,-1.89 0,-4.05 12.16,-20.72 21.62,-29.66 13.08,-12.35 39.9,-26.84 55.98,-30.24 5.96,-1.26 14.75,-3.61 19.54,-5.23 10.33,-3.47 12.56,-2.45 5.3,2.42 -2.88,1.93 -8.3,8.19 -12.06,13.91 -11.63,17.67 -17.98,23.74 -42.4,40.47 -9.2,6.3 -32.25,11.85 -42.51,10.22 z m -471,-27.04 c -5.16,-6.17 -7.62,-11.9 -10.11,-23.49 -1.8,-8.43 -3.28,-18.87 -3.28,-23.19 0,-11.32 7.25,-45.8 11.73,-55.78 3.78,-8.4 3.83,-8.44 4,-2.41 0.1,3.36 3.3,18.93 7.1,34.61 4.34,17.86 6.93,33.5 6.95,41.88 0.02,13.23 -4.39,33.25 -7.81,35.41 -0.97,0.62 -4.84,-2.55 -8.58,-7.03 z m 463.81,2.43 c -8.05,-20.83 -7.74,-34.45 1.64,-72.69 3.29,-13.44 6,-26.9 6.02,-29.91 0.08,-17.8 8.8,2.31 13.97,32.21 4.96,28.75 -1.47,62.24 -13.75,71.54 l -5.75,4.36 z M 81.98,618.14 C 67.734,612.95 53.466,601.47 44.958,588.34 41.12,582.42 32.65,566.55 26.135,553.08 l -11.845,-24.5 9.363,5.51 c 5.149,3.04 14.589,9.24 20.977,13.78 6.389,4.55 14.752,10.22 18.585,12.61 14.388,8.94 30.711,35.03 33.632,53.75 1.476,9.45 0.835,9.62 -14.867,3.91 z m 564.1,1.05 c 0,-1.71 2.81,-10.58 6.24,-19.69 7.02,-18.66 16.32,-30.42 33.27,-42.08 15.5,-10.67 40.78,-26.71 42.1,-26.72 2.09,-0.01 -23.95,51.85 -30.84,61.41 -8.07,11.19 -21.41,21.09 -35.58,26.39 -12.34,4.63 -15.19,4.75 -15.19,0.69 z M 95.8,592.85 c -5.348,-14.64 -5.413,-33.16 -0.178,-50.53 4.257,-14.12 29.774,-56.5 29.674,-49.29 -0.31,23.69 -4.28,71.21 -6.57,78.62 -3.9,12.65 -9.91,24.41 -14.77,28.91 -3.93,3.64 -4.054,3.52 -8.156,-7.71 z m 543.79,7.57 c -4.8,-5.46 -12.6,-22.79 -15.18,-33.76 -2.03,-8.62 -6.59,-74.76 -5.25,-76.22 1.49,-1.62 25.44,39.01 29.14,49.42 6.12,17.24 6.06,41.18 -0.13,54.46 -2.49,5.32 -4.73,9.67 -4.98,9.67 -0.26,0 -1.88,-1.61 -3.6,-3.57 z m -580.14,-73 C 41.279,515.16 31.019,494.45 25.173,458.21 c -1.645,-10.19 -3.631,-20.27 -4.414,-22.4 -1.093,-2.96 0.245,-2.44 5.746,2.25 3.944,3.35 9.356,7.65 12.028,9.55 8.363,5.93 29.678,38.43 33.574,51.2 4.404,14.42 4.958,35.95 0.925,35.95 -1.487,0 -7.599,-3.3 -13.582,-7.34 z m 609.15,-7.81 c 1.48,-17.84 6.07,-31.26 15.41,-45.04 6.99,-10.32 36.95,-41.6 39.84,-41.6 0.89,0 0.74,2.37 -0.34,5.28 -1.08,2.9 -3.22,13.21 -4.75,22.9 -5.4,34.08 -16.76,55.93 -34.84,66.98 -16.09,9.85 -16.8,9.45 -15.32,-8.52 z M 80.66,509.62 c -0.903,-7.4 -0.296,-15.07 1.895,-23.92 5.489,-22.19 11.578,-32.29 30.916,-51.25 9.85,-9.66 17.91,-17.09 17.91,-16.52 0,0.57 -1.43,5.79 -3.18,11.6 -9.67,32.16 -15.72,49.79 -19.29,56.25 -5.49,9.92 -23.679,34.73 -25.468,34.73 -0.801,0 -2.053,-4.9 -2.783,-10.89 z m 571.85,1.05 c -16.11,-19.58 -24.79,-39.5 -39.15,-89.92 l -1.45,-5.09 4.94,5.09 c 2.71,2.8 11.66,11.79 19.88,19.98 12.73,12.69 15.74,17.06 20.32,29.53 5.72,15.55 8.42,38.01 5.51,45.79 -1.69,4.55 -2.03,4.37 -10.05,-5.38 z M 66.62,443.37 C 50.759,433.46 44.425,411.5 46.921,375.09 c 0.85,-12.4 1.568,-25.45 1.595,-29 0.048,-6.28 0.238,-6.13 6.83,5.09 3.729,6.35 8.018,12.95 9.532,14.67 4.087,4.64 11.932,23.87 14.796,36.26 2.517,10.9 1.895,22.34 -2.026,37.26 -2.37,9.02 -2.763,9.16 -11.028,4 z m 600.91,-0.73 c -1.62,-2.91 -2.55,-12.38 -2.56,-25.96 -0.01,-20.03 0.39,-22.22 6.42,-34.61 3.53,-7.28 10.33,-19.41 15.1,-26.96 l 8.69,-13.72 1.7,19.83 c 2.99,34.86 0.85,54.29 -7.75,70.32 -3.52,6.57 -13.91,15.68 -17.88,15.68 -0.65,0 -2.33,-2.06 -3.72,-4.58 z M 85.67,429.8 c 0,-17.22 9.871,-36.09 26.915,-51.46 7.18,-6.47 42.02,-26.81 45.93,-26.81 0.59,0 -1.75,3.43 -5.2,7.63 -3.44,4.2 -11.64,15.88 -18.21,25.96 -13.16,20.19 -26.15,34.88 -38.863,43.95 -10.122,7.23 -10.572,7.26 -10.572,0.73 z m 563.34,-0.16 c -11.78,-7.97 -28.58,-25.18 -32.87,-33.66 -5.86,-11.6 -15.89,-26.44 -23.12,-34.21 -3.61,-3.89 -6.57,-7.84 -6.57,-8.79 0,-0.95 9,3.1 20,9 15.69,8.4 22.76,13.7 32.73,24.53 12.68,13.77 15.52,19.77 19.83,41.87 1.56,8.02 0.22,8.18 -10,1.26 z M 88.28,361.32 C 75.411,338.97 75.909,324.45 91.123,278.4 l 5.661,-17.13 6.718,20.88 c 5.29,16.45 6.71,24.18 6.69,36.47 -0.02,17.12 -5.4,34.94 -13.414,44.49 l -4.428,5.27 z m 560.42,4.16 c -1.19,-1.52 -4.73,-7.79 -7.86,-13.95 -5.3,-10.42 -5.69,-12.77 -5.57,-33.6 0.11,-19.98 0.78,-24.14 6.27,-38.68 3.71,-9.84 6.6,-15.08 7.3,-13.23 8.71,22.95 17.02,53.91 17.07,63.54 0.03,8.61 -6.45,27.8 -11.59,34.31 -2.83,3.57 -3.85,3.86 -5.62,1.61 z M 108.68,353.05 c 6.84,-22.11 35.12,-43.24 68.73,-51.36 19.76,-4.77 21.15,-4.03 9.42,5 -5.79,4.46 -13.71,11.15 -17.59,14.88 -16.64,15.94 -49.1,35.99 -58.37,36.04 -2.84,0.02 -3.31,-0.95 -2.19,-4.56 z m 518.7,3.12 c -7.07,-1.85 -27.98,-14.69 -38.94,-23.91 -6.01,-5.06 -17.37,-14.45 -25.23,-20.87 -7.86,-6.42 -13.99,-11.98 -13.62,-12.36 1.88,-1.92 26.94,4.66 41.47,10.89 18.63,8 33.91,21.07 40.81,34.93 6.31,12.66 5.77,14.01 -4.49,11.32 z M 125.8,289.94 c -3.01,-14.2 -1.24,-31.28 4.44,-42.95 2.8,-5.77 10.84,-17.63 17.86,-26.34 l 12.75,-15.85 1.39,13.29 c 3.05,29.15 -3.93,53.39 -20.09,69.81 -5.79,5.88 -11.42,10.69 -12.52,10.69 -1.1,0 -2.82,-3.89 -3.83,-8.65 z m 478.02,-0.33 c -5.58,-5.27 -11.68,-13.83 -14.87,-20.85 -4.85,-10.65 -5.49,-14.69 -6.12,-38.37 l -0.71,-26.47 7.63,8.98 c 22.12,26.02 28.13,37.25 29.79,55.61 1.1,12.22 -1.79,30.11 -4.85,30.06 -0.78,-0.01 -5.67,-4.04 -10.87,-8.96 z m -448.31,-7.44 c 16.97,-16.46 33.98,-22.29 64.89,-22.23 21.85,0.04 25.73,2.16 12.93,7.06 -5.25,2.01 -16.71,7.29 -25.45,11.72 -17.42,8.83 -35.9,13.67 -52.37,13.73 l -10.65,0.03 z m 410.07,7.42 c -6.55,-1.37 -20.41,-6.65 -30.8,-11.72 -10.38,-5.08 -22.22,-10.46 -26.31,-11.96 -10.71,-3.94 -5.69,-5.93 14.99,-5.97 31.77,-0.06 51.91,7.34 68.85,25.29 l 6.84,7.25 -10.82,-0.2 c -5.95,-0.11 -16.19,-1.32 -22.75,-2.69 z M 210.34,247.77 c -4.11,-0.81 -8.04,-2.06 -8.73,-2.77 -2.25,-2.3 3.21,-6.95 13.79,-11.71 15.87,-7.15 40.56,-6.71 63.52,1.15 9.57,3.27 17.39,6.68 17.39,7.56 0,0.89 -3.35,1.63 -7.45,1.64 -4.1,0.01 -17.29,1.36 -29.31,3.01 -23.33,3.2 -37.17,3.52 -49.21,1.12 z m 281.72,-0.04 c -6.56,-0.91 -19.35,-2.35 -28.42,-3.19 -9.07,-0.85 -15.78,-2.25 -14.9,-3.13 3.35,-3.36 32.09,-11.9 44.41,-13.19 14.92,-1.57 34.53,2.66 43.83,9.44 6.62,4.84 7.17,7 2.27,8.93 -5.68,2.24 -34.36,2.93 -47.19,1.14 z m -309.89,-7.38 c -4.35,-17.76 8.68,-39.78 33.85,-57.21 6.45,-4.47 13.65,-9.16 16,-10.43 l 4.26,-2.3 -3.55,14.12 c -4.98,19.86 -10.58,30.67 -22.1,42.65 -8.16,8.49 -22.37,18.48 -26.3,18.48 -0.47,0 -1.44,-2.39 -2.16,-5.31 z m 368.31,1.24 c -9.34,-5.05 -27.29,-25.23 -31.89,-35.86 -3.8,-8.78 -10.43,-33.26 -9.3,-34.36 0.36,-0.35 7.14,3.66 15.06,8.92 16.03,10.63 33.31,30.01 36.49,40.93 2.42,8.3 1.67,22.84 -1.22,23.67 -1.09,0.32 -5.21,-1.17 -9.14,-3.3 z M 245.72,204.43 c 4.14,-19.72 14.4,-27.83 45.62,-36.08 7.66,-2.02 15.57,-4.37 17.59,-5.22 6.98,-2.93 -2.07,10.84 -17.55,26.7 -14.87,15.23 -26.51,21.21 -41.29,21.21 -5.46,0 -5.69,-0.34 -4.37,-6.61 z m 231.57,3.26 c -4.85,-1.74 -12.35,-6.04 -16.67,-9.57 -7.37,-6.02 -29.69,-34.05 -28.27,-35.5 0.35,-0.37 4.99,0.71 10.3,2.4 5.32,1.68 15.35,4.71 22.3,6.73 19.35,5.61 34.06,20.8 34.06,35.16 0,3.33 -1.26,4.12 -6.46,4.04 -3.55,-0.06 -10.42,-1.52 -15.26,-3.26 z" />
        </g>
      </g>
    </g>
  </g>
  <metadata
     id="metadata77">
    <rdf:RDF>
      <cc:Work>
        <dc:format>image/svg+xml</dc:format>
        <dc:type
           rdf:resource="http://purl.org/dc/dcmitype/StillImage" />
        <cc:license
           rdf:resource="http://creativecommons.org/publicdomain/zero/1.0/" />
        <dc:publisher>
          <cc:Agent
             rdf:about="http://openclipart.org/">
            <dc:title>Openclipart</dc:title>
          </cc:Agent>
        </dc:publisher>
        <dc:title></dc:title>
      </cc:Work>
      <cc:License
         rdf:about="http://creativecommons.org/publicdomain/zero/1.0/">
        <cc:permits
           rdf:resource="http://creativecommons.org/ns#Reproduction" />
        <cc:permits
           rdf:resource="http://creativecommons.org/ns#Distribution" />
        <cc:permits
           rdf:resource="http://creativecommons.org/ns#DerivativeWorks" />
      </cc:License>
    </rdf:RDF>
  </metadata>
</svg>
